<svg xmlns="http://www.w3.org/2000/svg" viewBox="0 0 437.33 408"><defs><style>.cls-1,.cls-4{fill:none;}.cls-1,.cls-2,.cls-3,.cls-4{stroke:#0071bc;stroke-width:3px;}.cls-1,.cls-3{stroke-linecap:round;stroke-linejoin:round;}.cls-2,.cls-3{fill:#fff;}.cls-2,.cls-4{stroke-miterlimit:10;}</style></defs><g id="Layer_2" data-name="Layer 2"><g id="Layer_1-2" data-name="Layer 1"><polygon class="cls-1" points="214.56 331.76 186.79 343.32 189.36 349.5 217.13 337.93 214.56 331.76 214.56 331.76"/><path class="cls-1" d="M167.58,368.07A50,50,0,0,1,168.76,287l-13.59-32.57,4.67-1.85-3.69-9,9.18-3.86,3.7,9,4.68-1.85,28.37,68h0a9.92,9.92,0,0,1-1.32,9.86l1.84,4.34-9.18,3.86-1.85-4.34a10.28,10.28,0,0,1-8-6h0l-1.85-4.68-22.9,0a39.63,39.63,0,0,0-1.32,10,40.24,40.24,0,0,0,40.19,40l31.76-.06,0,10v3.35l-93.59.17v-3.34l0-10,31.76-.06Zm3.24-53.49a10,10,0,1,0-10-10,10.05,10.05,0,0,0,10,10Z"/><circle class="cls-2" cx="123.67" cy="208" r="44.5"/><path class="cls-3" d="M93.17,383.5h-67l11-82c3-25.5,20.92-45,45.5-45s38.09,17.16,47.5,40c14,34,17.7,41,19.86,45a4.24,4.24,0,0,0,3.32,2.22l47.32,4.78c14.34,2,16.6,8.06,17,16.94a17.4,17.4,0,0,1-17.42,18.06h-65a25.26,25.26,0,0,1-12.31-3.21h0a25.25,25.25,0,0,1-10.23-10.72L87.17,318.5Z"/><path class="cls-4" d="M242.27,155.37,241.09,143a3.31,3.31,0,0,1,3-3.62h0a3.3,3.3,0,0,1,2,.45,7.52,7.52,0,0,0,11.19-8,7.53,7.53,0,0,0-12.38-4.08,3.29,3.29,0,0,1-1.86.8h0a3.32,3.32,0,0,1-3.62-3l-1.19-12.35L250.59,112a3.34,3.34,0,0,0,3-3.63h0a3.29,3.29,0,0,0-.8-1.86,7.43,7.43,0,0,1-1.91-5.19,7.52,7.52,0,1,1,14,4,3.3,3.3,0,0,0-.45,2h0a3.32,3.32,0,0,0,3.62,3l12.36-1.19,1.18,12.36a3.32,3.32,0,0,1-3,3.63h0a3.29,3.29,0,0,1-2-.45,7.53,7.53,0,1,0,1.19,12.08,3.19,3.19,0,0,1,1.85-.79h0a3.32,3.32,0,0,1,3.63,3l1.18,12.36-12.36,1.18a3.34,3.34,0,0,0-3,3.63h0a3.25,3.25,0,0,0,.79,1.85,7.52,7.52,0,1,1-12.08,1.19,3.27,3.27,0,0,0,.45-2h0a3.33,3.33,0,0,0-3.63-3Z"/><path class="cls-4" d="M283.63,223.9l2.6-12.14a3.33,3.33,0,0,1,3.95-2.56h0a3.31,3.31,0,0,1,1.78,1,7.52,7.52,0,1,0,8-12.14,7.43,7.43,0,0,0-5.52.26,3.23,3.23,0,0,1-2,.19h0a3.32,3.32,0,0,1-2.56-3.94l2.6-12.14,12.14,2.6a3.33,3.33,0,0,0,3.95-2.56h0a3.3,3.3,0,0,0-.2-2A7.52,7.52,0,1,1,320.27,183a3.29,3.29,0,0,0-1,1.78h0a3.32,3.32,0,0,0,2.55,4l12.14,2.6-2.6,12.14a3.32,3.32,0,0,1-3.95,2.55h0a3.31,3.31,0,0,1-1.78-1,7.52,7.52,0,1,0-2.5,11.89,3.12,3.12,0,0,1,2-.2h0a3.33,3.33,0,0,1,2.56,3.95l-2.6,12.14-12.14-2.6a3.31,3.31,0,0,0-3.94,2.55h0a3.22,3.22,0,0,0,.19,2A7.52,7.52,0,1,1,295,236.24a7.57,7.57,0,0,1,2.33-4,3.31,3.31,0,0,0,1-1.78h0a3.32,3.32,0,0,0-2.56-3.94Z"/><path class="cls-4" d="M283.63,223.9l-12.14-2.6a3.32,3.32,0,0,1-2.55-4h0a3.31,3.31,0,0,1,1-1.78,7.53,7.53,0,1,0-11.89-2.51,3.16,3.16,0,0,1,.2,2h0a3.33,3.33,0,0,1-4,2.56L242.2,215l2.6-12.14a3.32,3.32,0,0,0-2.55-3.95h0a3.3,3.3,0,0,0-2,.2,7.52,7.52,0,1,1,2.51-11.88,3.29,3.29,0,0,0,1.78,1h0a3.31,3.31,0,0,0,3.94-2.55l2.6-12.14,12.14,2.6a3.33,3.33,0,0,1,2.56,4h0a3.31,3.31,0,0,1-1,1.78,7.52,7.52,0,1,0,11.88,2.5,3.19,3.19,0,0,1-.19-2h0a3.32,3.32,0,0,1,3.94-2.56l12.14,2.6-2.6,12.14a3.32,3.32,0,0,0,2.56,3.94h0a3.23,3.23,0,0,0,2-.19,7.43,7.43,0,0,1,5.52-.26,7.52,7.52,0,1,1-8,12.14,3.31,3.31,0,0,0-1.78-1h0a3.33,3.33,0,0,0-3.95,2.56Z"/><path class="cls-1" d="M357.91,261,210.08,233.56l34-183.31,32.53,6L273.36,74l82.78,15.38,3.3-17.74,32.52,6L357.91,261ZM322.44,40.32a9,9,0,1,1-10.52,7.23,8.2,8.2,0,0,1,3.82-5.72,8.19,8.19,0,0,1,6.7-1.51Zm78.73,20.75-50.26-9.34,1.1-5.91a12.07,12.07,0,0,0-9.63-14L306.9,25.2a12.06,12.06,0,0,0-14,9.63l-1.1,5.91-50.27-9.33a12.06,12.06,0,0,0-14,9.63L191.24,236.17a12.08,12.08,0,0,0,9.63,14l159.66,29.65a12.06,12.06,0,0,0,14-9.63L410.8,75.09a12,12,0,0,0-9.63-14Z"/><path class="cls-1" d="M380.37,87.72a3.42,3.42,0,1,1-1.14-4.7,3.43,3.43,0,0,1,1.14,4.7Z"/><path class="cls-1" d="M379.89,99.43a3.42,3.42,0,1,1-1.13-4.7,3.41,3.41,0,0,1,1.13,4.7Z"/><path class="cls-1" d="M370.39,91a3.42,3.42,0,1,1-1.14-4.7,3.42,3.42,0,0,1,1.14,4.7Z"/><path class="cls-1" d="M366.78,103.44a4.55,4.55,0,1,1-1.51-6.26,4.55,4.55,0,0,1,1.51,6.26Z"/><path class="cls-1" d="M349.07,170.77l4.23-32.09,10.43-17.11a6.93,6.93,0,0,1,6-3.28,2.28,2.28,0,0,0,2.47-2.09A2.44,2.44,0,0,0,371,114h0l-19.44-11.85h0a2.44,2.44,0,0,0-2.5-.06,2.29,2.29,0,0,0-.73,3.16,7,7,0,0,1-.16,6.83L337.75,129.2l-26.59,18.46a6.91,6.91,0,0,0-2.89,5.83,6.8,6.8,0,0,0,3.26,5.59l27.22,16.59a6.77,6.77,0,0,0,6.46.34,6.87,6.87,0,0,0,3.86-5.24Zm10.77-51.57-2.37,3.89-7.78-4.74,2.37-3.89a11.56,11.56,0,0,0,1.7-5.63l10.4,6.34a10.61,10.61,0,0,0-4.32,4Z"/><rect class="cls-1" x="1.5" y="1.5" width="434.33" height="405" rx="32.56"/></g></g></svg>